<svg xmlns="http://www.w3.org/2000/svg" width="28.312" height="28.306" viewBox="0 0 28.312 28.306">
  <path id="Icon_awesome-instagram" data-name="Icon awesome-instagram" d="M14.154,9.133a7.257,7.257,0,1,0,7.257,7.257A7.246,7.246,0,0,0,14.154,9.133Zm0,11.975a4.718,4.718,0,1,1,4.718-4.718,4.727,4.727,0,0,1-4.718,4.718ZM23.4,8.836a1.693,1.693,0,1,1-1.693-1.693A1.689,1.689,0,0,1,23.4,8.836Zm4.807,1.718a8.377,8.377,0,0,0-2.286-5.931A8.432,8.432,0,0,0,19.99,2.337c-2.337-.133-9.342-.133-11.679,0a8.42,8.42,0,0,0-5.931,2.28A8.4,8.4,0,0,0,.094,10.548c-.133,2.337-.133,9.342,0,11.679a8.377,8.377,0,0,0,2.286,5.931,8.443,8.443,0,0,0,5.931,2.286c2.337.133,9.342.133,11.679,0a8.377,8.377,0,0,0,5.931-2.286,8.432,8.432,0,0,0,2.286-5.931c.133-2.337.133-9.335,0-11.672Zm-3.019,14.18A4.777,4.777,0,0,1,22.5,27.425c-1.863.739-6.285.568-8.344.568s-6.487.164-8.344-.568A4.777,4.777,0,0,1,3.12,24.734c-.739-1.863-.568-6.285-.568-8.344S2.387,9.9,3.12,8.047A4.777,4.777,0,0,1,5.81,5.356c1.863-.739,6.285-.568,8.344-.568s6.487-.164,8.344.568a4.777,4.777,0,0,1,2.691,2.691c.739,1.863.568,6.285.568,8.344S25.927,22.877,25.188,24.734Z" transform="translate(0.005 -2.238)" fill="#fff"/>
</svg>
